<?xml version="1.0" encoding="UTF-8"?>
<svg width="752pt" height="752pt" version="1.1" viewBox="0 0 752 752" xmlns="http://www.w3.org/2000/svg">
 <path d="m316.8 553.59h118.39c3.6602 0.023438 7.1953-1.3125 9.9297-3.7422 2.7305-2.4336 4.4688-5.793 4.8711-9.4297l29.598-266.39v0.003906c0.46484-4.1992-0.88672-8.3984-3.7148-11.535-2.8281-3.1406-6.8594-4.918-11.086-4.8945h-69.852l7.3984-29.598h47.656c5.2852 0 10.172-2.8203 12.816-7.3984 2.6406-4.582 2.6406-10.223 0-14.801-2.6445-4.5781-7.5312-7.3984-12.816-7.3984h-59.199c-3.3789-0.10156-6.6914 0.96094-9.3867 3.0078-2.6914 2.0469-4.6016 4.9531-5.4141 8.2383l-11.543 47.949h-77.254c-4.2227-0.023438-8.2578 1.7539-11.082 4.8945-2.8281 3.1367-4.1797 7.3359-3.7148 11.535l29.598 266.39v-0.003906c0.40234 3.6367 2.1367 6.9961 4.8711 9.4297 2.7344 2.4297 6.2695 3.7656 9.9297 3.7422zm105.07-29.598h-91.754l-16.727-149.77c5.9961 1.1953 12.094 1.793 18.203 1.7734 18.953 0.24219 37.445-5.8516 52.539-17.312 10.266-8.2344 23.105-12.582 36.258-12.285 7.1328-0.15625 14.227 1.1016 20.867 3.6992zm26.344-236.79-3.6992 32.855v-0.003906c-7.8516-2.2031-15.969-3.2969-24.125-3.2539-18.949-0.24219-37.441 5.8516-52.535 17.312-10.266 8.2344-23.105 12.582-36.262 12.285-7.4492 0.17969-14.855-1.1797-21.754-3.9961l-6.0664-55.203z"/>
</svg>
